<svg width="57" height="57" viewBox="0 0 57 57" fill="none" xmlns="http://www.w3.org/2000/svg">
<mask id="path-1-outside-1_65_187" maskUnits="userSpaceOnUse" x="0.423645" y="0.150146" width="57" height="56" fill="black">
<rect fill="white" x="0.423645" y="0.150146" width="57" height="56"/>
<path d="M51.645 28.1179C51.645 34.2093 49.2102 40.0512 44.8761 44.3585C40.542 48.6658 34.6637 51.0856 28.5343 51.0856C22.405 51.0856 16.5267 48.6658 12.1926 44.3585C7.85852 40.0512 5.42365 34.2093 5.42365 28.1179C5.42365 22.0265 7.85852 16.1845 12.1926 11.8772C16.5267 7.56996 22.405 5.15015 28.5343 5.15015C34.6637 5.15015 40.542 7.56996 44.8761 11.8772C49.2102 16.1845 51.645 22.0265 51.645 28.1179ZM25.0388 19.772C24.8229 19.6192 24.5687 19.5284 24.3043 19.5095C24.0398 19.4907 23.7753 19.5446 23.5396 19.6653C23.3039 19.7859 23.1061 19.9688 22.9681 20.1937C22.83 20.4186 22.7568 20.677 22.7567 20.9405V35.2953C22.7568 35.5588 22.83 35.8172 22.9681 36.0421C23.1061 36.267 23.3039 36.4498 23.5396 36.5705C23.7753 36.6912 24.0398 36.7451 24.3043 36.7262C24.5687 36.7074 24.8229 36.6166 25.0388 36.4638L35.1498 29.2864C35.337 29.1536 35.4896 28.9783 35.5949 28.775C35.7002 28.5718 35.7552 28.3465 35.7552 28.1179C35.7552 27.8893 35.7002 27.664 35.5949 27.4607C35.4896 27.2575 35.337 27.0822 35.1498 26.9494L25.0388 19.772Z"/>
</mask>
<path d="M51.645 28.1179C51.645 34.2093 49.2102 40.0512 44.8761 44.3585C40.542 48.6658 34.6637 51.0856 28.5343 51.0856C22.405 51.0856 16.5267 48.6658 12.1926 44.3585C7.85852 40.0512 5.42365 34.2093 5.42365 28.1179C5.42365 22.0265 7.85852 16.1845 12.1926 11.8772C16.5267 7.56996 22.405 5.15015 28.5343 5.15015C34.6637 5.15015 40.542 7.56996 44.8761 11.8772C49.2102 16.1845 51.645 22.0265 51.645 28.1179ZM25.0388 19.772C24.8229 19.6192 24.5687 19.5284 24.3043 19.5095C24.0398 19.4907 23.7753 19.5446 23.5396 19.6653C23.3039 19.7859 23.1061 19.9688 22.9681 20.1937C22.83 20.4186 22.7568 20.677 22.7567 20.9405V35.2953C22.7568 35.5588 22.83 35.8172 22.9681 36.0421C23.1061 36.267 23.3039 36.4498 23.5396 36.5705C23.7753 36.6912 24.0398 36.7451 24.3043 36.7262C24.5687 36.7074 24.8229 36.6166 25.0388 36.4638L35.1498 29.2864C35.337 29.1536 35.4896 28.9783 35.5949 28.775C35.7002 28.5718 35.7552 28.3465 35.7552 28.1179C35.7552 27.8893 35.7002 27.664 35.5949 27.4607C35.4896 27.2575 35.337 27.0822 35.1498 26.9494L25.0388 19.772Z" fill="white"/>
<path d="M51.645 28.1179H56.645H51.645ZM28.5343 51.0856V56.0856V51.0856ZM5.42365 28.1179H0.423645H5.42365ZM28.5343 5.15015V0.150146V5.15015ZM25.0388 19.772L27.9331 15.6948L27.9269 15.6904L25.0388 19.772ZM22.7567 20.9405L17.7567 20.9374V20.9405H22.7567ZM22.7567 35.2953H17.7567L17.7567 35.2984L22.7567 35.2953ZM25.0388 36.4638L27.9269 40.5453L27.9331 40.541L25.0388 36.4638ZM35.1498 29.2864L32.2574 25.2079L32.2555 25.2092L35.1498 29.2864ZM35.1498 26.9494L32.2555 31.0266L32.2574 31.0279L35.1498 26.9494ZM46.645 28.1179C46.645 32.8732 44.7445 37.44 41.3515 40.812L48.4006 47.905C53.6758 42.6625 56.645 35.5454 56.645 28.1179H46.645ZM41.3515 40.812C37.9575 44.1851 33.3476 46.0856 28.5343 46.0856V56.0856C35.9798 56.0856 43.1265 53.1465 48.4006 47.905L41.3515 40.812ZM28.5343 46.0856C23.7211 46.0856 19.1112 44.1851 15.7172 40.812L8.66806 47.905C13.9422 53.1465 21.0889 56.0856 28.5343 56.0856V46.0856ZM15.7172 40.812C12.3241 37.44 10.4236 32.8732 10.4236 28.1179H0.423645C0.423645 35.5454 3.39289 42.6625 8.66806 47.905L15.7172 40.812ZM10.4236 28.1179C10.4236 23.3626 12.3241 18.7958 15.7172 15.4237L8.66806 8.33076C3.39289 13.5733 0.423645 20.6903 0.423645 28.1179H10.4236ZM15.7172 15.4237C19.1112 12.0507 23.7211 10.1501 28.5343 10.1501V0.150146C21.0889 0.150146 13.9422 3.08925 8.66806 8.33076L15.7172 15.4237ZM28.5343 10.1501C33.3476 10.1501 37.9575 12.0507 41.3515 15.4237L48.4006 8.33076C43.1265 3.08925 35.9798 0.150146 28.5343 0.150146V10.1501ZM41.3515 15.4237C44.7445 18.7958 46.645 23.3626 46.645 28.1179H56.645C56.645 20.6903 53.6758 13.5733 48.4006 8.33076L41.3515 15.4237ZM27.9269 15.6904C26.9636 15.0088 25.833 14.6057 24.6593 14.5222L23.9493 24.4969C23.3045 24.451 22.6822 24.2295 22.1508 23.8535L27.9269 15.6904ZM24.6593 14.5222C23.4856 14.4386 22.3101 14.6775 21.2609 15.2147L25.8183 24.1158C25.2404 24.4117 24.594 24.5428 23.9493 24.4969L24.6593 14.5222ZM21.2609 15.2147C20.2114 15.752 19.3267 16.5683 18.707 17.5777L27.2291 22.8097C26.8856 23.3692 26.3964 23.8198 25.8183 24.1158L21.2609 15.2147ZM18.707 17.5777C18.0872 18.5873 17.7574 19.7498 17.7567 20.9374L27.7567 20.9436C27.7563 21.6042 27.5728 22.2499 27.2291 22.8097L18.707 17.5777ZM17.7567 20.9405V35.2953H27.7567V20.9405H17.7567ZM17.7567 35.2984C17.7574 36.486 18.0872 37.6485 18.707 38.6581L27.2291 33.4261C27.5728 33.9859 27.7563 34.6316 27.7567 35.2922L17.7567 35.2984ZM18.707 38.6581C19.3267 39.6675 20.2114 40.4837 21.2609 41.0211L25.8183 32.1199C26.3964 32.4159 26.8856 32.8666 27.2291 33.4261L18.707 38.6581ZM21.2609 41.0211C22.3101 41.5583 23.4856 41.7972 24.6593 41.7136L23.9493 31.7389C24.594 31.693 25.2404 31.8241 25.8183 32.1199L21.2609 41.0211ZM24.6593 41.7136C25.833 41.6301 26.9636 41.227 27.9269 40.5453L22.1508 32.3822C22.6821 32.0062 23.3044 31.7848 23.9493 31.7389L24.6593 41.7136ZM27.9331 40.541L38.044 33.3635L32.2555 25.2092L22.1446 32.3866L27.9331 40.541ZM38.0422 33.3649C38.8775 32.7724 39.5615 31.9881 40.0344 31.0752L31.1554 26.4749C31.4178 25.9684 31.7965 25.5347 32.2574 25.2079L38.0422 33.3649ZM40.0344 31.0752C40.5075 30.1621 40.7552 29.1481 40.7552 28.1179H30.7552C30.7552 27.5448 30.893 26.9814 31.1554 26.4749L40.0344 31.0752ZM40.7552 28.1179C40.7552 27.0876 40.5075 26.0736 40.0344 25.1606L31.1554 29.7609C30.893 29.2543 30.7552 28.6909 30.7552 28.1179H40.7552ZM40.0344 25.1606C39.5615 24.2477 38.8776 23.4634 38.0422 22.8709L32.2574 31.0279C31.7965 30.701 31.4178 30.2673 31.1554 29.7609L40.0344 25.1606ZM38.044 22.8722L27.9331 15.6948L22.1446 23.8492L32.2555 31.0266L38.044 22.8722Z" fill="#DCDCDC" fill-opacity="0.28" mask="url(#path-1-outside-1_65_187)"/>
</svg>
