<svg width="57" height="57" viewBox="0 0 57 57" fill="none" xmlns="http://www.w3.org/2000/svg">
<path d="M51.645 28.1179C51.645 34.2093 49.2102 40.0512 44.8761 44.3585C40.542 48.6658 34.6637 51.0856 28.5343 51.0856C22.405 51.0856 16.5267 48.6658 12.1926 44.3585C7.85852 40.0512 5.42365 34.2093 5.42365 28.1179C5.42365 22.0265 7.85852 16.1845 12.1926 11.8772C16.5267 7.56996 22.405 5.15015 28.5343 5.15015C34.6637 5.15015 40.542 7.56996 44.8761 11.8772C49.2102 16.1845 51.645 22.0265 51.645 28.1179ZM25.0388 19.772C24.8229 19.6192 24.5687 19.5284 24.3043 19.5095C24.0398 19.4907 23.7753 19.5446 23.5396 19.6653C23.3039 19.7859 23.1061 19.9688 22.9681 20.1937C22.83 20.4186 22.7568 20.677 22.7567 20.9405V35.2953C22.7568 35.5588 22.83 35.8172 22.9681 36.0421C23.1061 36.267 23.3039 36.4498 23.5396 36.5705C23.7753 36.6912 24.0398 36.7451 24.3043 36.7262C24.5687 36.7074 24.8229 36.6166 25.0388 36.4638L35.1498 29.2864C35.337 29.1536 35.4896 28.9783 35.5949 28.775C35.7002 28.5718 35.7552 28.3465 35.7552 28.1179C35.7552 27.8893 35.7002 27.664 35.5949 27.4607C35.4896 27.2575 35.337 27.0822 35.1498 26.9494L25.0388 19.772Z" fill="white"/>
<path d="M46.6383 46.1318C51.443 41.3569 54.145 34.8774 54.145 28.1179C54.145 21.3584 51.443 14.8789 46.6383 10.104C41.8342 5.3296 35.3217 2.65015 28.5343 2.65015C21.7469 2.65015 15.2344 5.3296 10.4303 10.104C5.6257 14.8789 2.92365 21.3584 2.92365 28.1179C2.92365 34.8774 5.6257 41.3569 10.4303 46.1318C15.2344 50.9062 21.7469 53.5856 28.5343 53.5856C35.3217 53.5856 41.8342 50.9062 46.6383 46.1318ZM25.2567 22.9925L32.4769 28.1179L25.2567 33.2433V22.9925Z" stroke="#DCDCDC" stroke-opacity="0.28" stroke-width="5"/>
</svg>
