<svg width="57" height="82" viewBox="0 0 57 82" fill="none" xmlns="http://www.w3.org/2000/svg">
<path d="M24.4832 50.4449L24.3388 50.7985L24.4351 51.4396L24.7633 52.8754L25.3303 54.7678L25.8025 55.8981L26.4361 57.3413L26.8847 58.1907L27.5734 59.4416L28.3978 60.836L29.0468 61.7346L29.591 62.4639L29.6151 62.8646L29.5434 63.1935L29.2392 63.3134L28.3261 63.3615L26.7253 63.2656L25.4043 63.0987L24.2434 62.8903L22.8337 62.4896L22.121 62.1767L21.6488 61.9684L21.1118 61.8718L20.4955 61.8962L20.1677 62.0405H19.7188L18.6539 61.8735L18.0453 61.6652L17.3806 61.6171L16.3234 61.5937L15.5231 61.5209H14.7864L14.0577 61.569L13.5611 61.777L13.2086 61.8735L13.0885 62.0405L13.1125 62.3697L13.4487 62.914L14.0823 63.7885L14.4585 63.9481L15.0511 64.3736L15.7315 64.7509L16.4682 64.9906L17.5254 65.015L18.4702 64.9185L19.2706 64.7349L19.9513 64.5181L20.2394 64.6624L20.3758 64.9426L20.6159 65.015L21.2002 64.9906L21.9369 65.0394L22.3138 65.1593L22.7617 65.0394L24.219 65.2224L25.2119 65.367L26.8373 65.7206L28.0223 66.0725L29.1918 66.4732L30.2237 66.9461L30.6239 67.2346L31.6911 67.2826L32.258 67.1384L32.5622 66.5206L32.89 65.7677L32.7956 65.1583L32.3954 64.3963L31.8592 63.2897L31.4333 62.1356L31.1211 60.8364L30.9857 59.7224V58.6399L31.0978 57.3653L31.2422 56.7235L31.0734 56.1789L30.7219 55.8984L30.0166 55.3768L29.5187 55.0239L29.4243 54.3423L29.1908 53.6131L28.7496 52.8992L28.2777 52.2901L27.6854 51.7224L26.9324 51.1524L26.0836 50.518L25.6351 50.3019L25.1872 50.1657L24.8107 50.2295L24.4832 50.4449Z" fill="white"/>
<path d="M21.7441 2.63825L21.7365 2.95114L21.408 3.02326L20.9838 2.9675L20.3434 3.1034L19.8632 3.256L19.4787 3.28038L19.3583 3.44734L19.4947 3.68108L19.7832 3.74519L20.0553 3.66505L20.3678 3.52848L20.6883 3.51245L21.3686 3.54584L21.8889 3.70612L22.5055 3.85872L23.4116 4.26644L23.492 4.45911L23.396 4.61104L22.9718 4.76364L22.7156 4.88418L22.2581 5.18905L21.5614 5.55636L20.713 6.15741L19.7431 6.59985L18.9761 7.1054L18.2798 7.41027L17.6231 7.57055L17.0465 7.58658L16.2537 7.6026L15.9489 7.68274L15.7732 8.05172L15.6368 8.45242L15.4844 8.7249L15.0998 9.30224L14.733 9.94336L14.4849 10.2559L14.4605 10.6169L14.4849 11.1218V11.6587L14.813 11.9556L15.1015 12.1078L15.446 12.0838L16.0066 11.9312L16.6403 11.7388L17.4974 11.3942L17.8415 11.4103L17.9216 11.6266L17.8415 11.835L17.5531 11.9876L16.675 12.3165L16.0183 12.5089L15.8906 12.7256L15.8662 12.9593L16.0823 13.1516L16.5416 13.2064H16.9084L17.3726 13.1904L17.8772 13.0695L18.6062 12.6845L19.0868 12.5883L19.495 12.5078L19.8075 12.612L20.2637 12.5883L20.7123 12.6448L21.0791 12.8611L21.6558 12.9169L22.4085 13.1506L22.817 13.2064L23.4507 13.0942L24.2594 13.1506L24.6116 13.2865L24.804 13.6155L24.764 14.0402L24.6679 14.5611L24.4758 15.1622L24.2037 15.9158L23.9319 16.7426L23.6451 17.4949L23.453 18.0158L22.7963 19.0423L22.0036 20.044L21.2913 21.0304L20.3861 21.936L19.5524 22.6416L19.0238 23.2026L18.7427 24.1245L18.3511 24.5896L17.8545 24.9423L17.2542 25.4391L16.3335 26.0004L15.5567 26.3928L15.0605 26.9605L14.7073 27.4196L14.3551 27.6363L13.8589 27.8847L13.5387 27.8123L12.9051 27.5234L12.2004 27.0666L11.1666 26.6098L10.0056 26.0004L9.40534 25.5433L8.66064 24.9423L7.8439 24.2688L6.96313 23.9482L6.18674 23.812L5.19391 24.02L4.48923 24.413L3.8806 24.8377L3.56844 25.6151L3.352 26.2162L3.10388 27.1378L2.82407 27.6987L2.5436 28.5566L2.50391 29.583L2.25545 30.1841L1.97532 31.1381L1.72686 32.0924L1.27063 32.9823L1.02217 33.8642L0.878103 34.9625L0.485908 35.8847L0.237451 36.414L0.204101 36.9432L0.170751 37.8331V39.3885L0 40.0303L0.104385 40.5916L0.0636985 41.5139L0.384191 42.2515L0.632648 42.4278L1.08887 42.2829L1.51275 41.8979L2.12139 41.1603L2.64998 40.3108L2.85809 39.6052L2.72235 39.0376L2.5456 38.3323L2.32949 37.4825L2.12139 36.593L2.00933 35.9188V35.2844L2.1534 34.5711L2.50558 33.4805L2.85775 32.9129L3.17825 32.6247L3.4257 32.2364L3.8826 32.1959L4.09871 32.06L4.41886 31.7709L4.77104 31.4583L5.0912 31.0336L5.22693 30.537L5.33932 30.1123L5.37267 29.5446L5.47706 29.0481L5.72518 28.7352L5.97364 28.6631L6.29379 28.7673L6.75035 29.0161L7.2466 29.5837L7.7752 30.3611L8.3755 31.0666L9.01615 31.6343L9.58477 32.0914L10.1434 32.3395L10.3195 32.6925L10.1434 32.8691L9.54308 32.7329L8.69432 32.6604L6.54058 32.2357L5.26762 32.1953L4.52291 32.2357L3.95597 32.5883L3.35567 33.1176L2.85909 33.967L2.47456 34.9291L2.43488 35.6346L2.65098 36.9092L3.14723 38.537L3.39535 39.8116L3.70784 41.0541L3.92395 41.9286L4.02834 42.7464L4.30814 43.6683L4.52458 45.0795L4.73269 45.5764L5.26895 46.0011L5.76553 46.4976L6.32581 47.3478L6.71801 48.3415L7.31831 49.2234L8.19941 50.0732L8.83773 50.4682L9.26161 50.5016L9.61378 50.3971L9.83022 49.9006L10.07 49.4758L10.2141 48.8748V47.4954L10.0383 47.1014C10.005 47.1014 10.005 46.8532 10.005 46.8212L9.93294 46.5731L9.64446 46.1487L9.11587 45.6188L8.13071 45.1944L7.77053 45.0818L7.7065 44.4808L7.73985 44.0958L7.06718 43.3177L6.64297 42.3233L6.29013 40.9119L6.00298 39.6052L5.51441 38.5788L5.33599 37.3359L5.61613 36.5906L6.1127 36.3101H6.49656L7.06351 36.8073L7.88025 37.3046L8.72867 37.6171L10.7784 38.6112L11.7725 39.1818V39.7111L12.6853 40.24L13.8546 40.6327H16.2981L16.122 41.0902L16.0183 41.3383L16.3305 41.9316L16.9307 42.8219L17.8919 43.7755L19.0531 45.0504L20.0456 45.932L21.9036 47.3591L23.409 48.1685L24.5379 48.7696L25.9876 49.7557L27.3246 50.7097L28.4778 51.6877L29.6784 53.3152L29.7341 53.9961L30.0063 54.7023L30.7429 55.2316L31.416 55.496L31.8325 55.4393L32.1617 55.1194L32.6339 54.6142L32.7466 53.933L33.3066 52.9646L33.4266 52.2186L33.5153 51.3932L33.571 50.7434L33.7551 50.3357L34.1313 50.151H34.4918L34.5158 50.4235L34.2524 50.712L34.0189 51.3368L33.8425 51.7218V52.1949L33.7788 53.1967L33.6354 53.7019L33.1945 54.4632L32.6015 55.4419L32.0096 56.5078L31.6581 57.8952L31.4816 59.3464L31.6581 60.9659L31.8915 61.9123L32.4518 63.1548L33.1642 64.63L33.7244 65.7844L34.4915 66.9951L35.4036 68.1178L35.58 68.5024V68.7669L35.4603 69.0958L35.1401 69.6251L34.6359 70.3307L33.602 71.662L32.5682 72.7836L31.6237 73.8187L31.2159 74.0592L30.3821 74.3797L29.8855 74.8532L29.6214 75.3902L29.0291 76.1274L28.3574 76.8644L27.5324 77.7226L27.0278 78.6041L26.7313 79.4943L26.5552 80.2313L26.5886 80.8247L26.9407 81.2017H28.2384L28.7983 81.1459L29.3839 80.7936L30.151 80.4407L30.2704 80.1438H30.5345L30.9424 79.9672L31.3269 79.6069L31.5353 78.1957L31.4149 77.8982L31.3589 77.6017L31.5674 77.6575L31.7988 77.7216L32.0399 77.5449L32.4245 77.3045L32.8323 76.7753L33.3366 76.062L33.601 75.4125L33.6567 74.8829L33.9856 74.6422L34.4578 74.3781L34.8423 74.1443L35.1625 73.4952L35.8435 72.7823L37.1185 71.6019L38.0856 70.9527L39.0634 70.4158L39.2945 70.1821L39.3832 69.9413L39.5903 69.6772L39.4459 69.3249L39.4153 68.6754L39.2862 68.0667L39.1341 67.7144L38.798 67.1371L38.263 66.4629L37.9992 65.958L37.9429 65.4284V64.7165L38.3824 63.2095L38.7102 62.6803L39.0631 62.4719L39.7111 62.0632L40.4781 61.4057L41.512 60.5245L42.2167 59.7869L42.9287 58.9608L43.6654 58.126L44.1943 57.188L44.6345 56.3866L45.0511 55.473L45.3475 54.4622L45.4363 53.5249L45.4919 52.8117L45.7324 52.5779L45.9962 52.5145L46.2296 52.6674L46.4378 53.164L46.4934 53.8448L46.5905 54.4943L46.5268 54.9361L46.4701 55.6172V57.0685L46.6462 58.2151L46.8533 58.5116L47.03 58.4873L47.1178 58.2789L46.998 57.8061V57.0047L47.2385 56.3312L47.3509 55.3531L47.4703 54.6713L47.6233 54.351H47.7994L47.9432 54.4953L48.0876 55.0566L48.207 55.5935L48.1513 56.4434L47.9745 57.598L47.4386 58.721L46.943 59.7869L46.6459 60.7008L46.5898 61.2621L46.6459 61.9113L46.853 62.5363H47.2378L47.4379 62.2639L47.3249 61.967L47.2375 61.4374L47.5893 60.9639L47.9982 60.4026L48.2703 59.874L48.9183 58.8389L49.4473 57.8926L49.6807 56.8574L49.8885 55.4947V54.1413L49.625 53.195L49.0961 52.4574L49.032 52.1054L49.2728 51.9852L49.5696 52.1291L49.9542 52.6026L50.4267 53.4601L50.6268 54.4619L50.7466 55.7925L51.0434 56.7148L51.0767 56.7389L51.4846 57.6528L51.7484 57.749L51.8678 57.5085L51.8364 57.364L51.6363 56.6831L51.603 56.0019L51.6363 55.0002L51.8128 53.8775V53.3162L51.7491 52.8431L51.2765 51.8964L50.868 51.2152L51.0127 50.9511L51.574 50.8309L52.341 50.4789L53.1661 50.0372L53.9025 49.3877L54.8479 48.1138L55.3839 47.0556L55.8244 46.0455L55.9692 44.426L56.0025 42.9748L55.7691 41.179L55.4969 39.8801L55.2635 38.5494L55.1187 37.1623L55.2318 36.2808L55.4719 35.1822L55.9682 34.0916L56.6798 32.9696L56.9443 32.2561L57 31.9038L56.7686 31.5832L56.4417 31.4293V31.9348L56.1773 32.2313L55.705 32.9369L55.4406 33.1132L54.7042 34.0034L54.4081 34.4763L54.0562 35.2703L53.6713 35.3344L53.3195 35.1261L53.1107 34.1797L53.1674 33.0895L53.4082 32.0791L53.9935 31.1314L55.1774 29.3597L55.8834 27.9165L55.9708 26.906L55.8584 26.5855L55.6513 26.7938L55.2992 27.6757L54.7606 28.5656L53.9672 29.2154L53.0547 30.0969L51.694 31.6927L51.4302 31.6684L51.3422 31.3959L51.3088 30.7464L51.3969 29.5356L51.8134 28.1809L52.5501 26.6736L53.5266 25.4632L54.7359 24.428L54.8483 24.1876L54.7039 24.0754L54.0879 24.396L53.5826 24.7245L52.7259 25.4622L51.6613 26.4085L50.9003 27.4436L50.1583 28.7987L49.7504 29.8969L49.6307 30.9875L49.574 32.4627L49.9262 34.0021L50.2783 35.3331L50.9587 37.4258L51.3996 39.9352L51.6637 41.8508V42.886L51.551 43.9762L51.3755 44.8671L51.0464 45.8689L49.8054 47.4323L48.5381 48.5863L46.914 49.4999L45.3522 49.5877L45.1451 48.826L44.5848 47.7274L43.8161 46.6696L43.3119 46.0448L42.6392 45.1312L41.1888 43.7448L39.7161 42.534L39.0681 42.0281L37.0337 40.6494L34.1113 38.1958L32.5172 36.2156L30.7723 33.3536L30.2994 31.638L30.4188 30.5718L30.6592 30.3634L31.2765 30.7801L32.2534 31.253L33.0468 31.2196L33.9585 31.6366L34.9357 32.23L35.44 32.6387L36.0889 33.0878L36.7616 33.1763L36.9137 32.8798L36.7373 32.8464L36.5298 32.9346L36.2017 32.7262L35.9129 32.2854L35.4973 31.6036L34.6969 30.8666L33.9045 30.5698L33.4633 30.4816L33.552 30.2479H34.168L34.8803 30.4816L35.9142 31.1628L36.3874 31.3712L36.5628 31.1304L36.2657 30.7214L35.4653 30.0078L34.2243 29.3583L32.7263 28.7733L32.4305 28.5329L32.7263 28.3245L33.3996 28.6534L34.6412 28.8618L35.9699 29.391L36.6746 29.7437L37.9155 29.9196L38.805 29.7998L39.3005 29.566L39.9815 29.149L40.278 28.8604L40.3114 28.6521L40.0359 28.6745L39.7731 28.9469L38.8917 29.2358L38.1246 29.356L37.4756 29.2675L36.8513 28.7706L36.2914 28.1131L35.6187 27.6166L34.6099 27.4082L33.6411 27.0793L33.2245 26.8149L33.2579 26.5811L33.6424 26.6372H34.4988L35.3549 26.5811H36.236L36.7086 26.493L37.0934 26.8135L37.7094 26.9658H38.2137L38.4471 26.7895L38.0392 26.6693L37.535 26.3404L37.0061 25.8438L36.1493 25.3947L34.7896 25.2241L34.5485 25.0798L35.0217 24.8154H35.7888L36.3821 24.9917L36.9667 25.2889L37.9115 25.6976L38.8563 25.731L39.3606 25.4906L39.505 25.1697L39.1211 24.9903L38.3287 24.957L37.648 24.7232L37.0561 24.2223L36.4074 23.8938L35.551 23.7482L34.8143 23.4834L34.4941 23.067L34.5498 22.8586L35.0231 22.9548L35.6154 23.1311L35.9675 23.3956L36.4718 23.4513L36.5275 23.1869L35.9996 22.7701L35.8465 22.3935L36.5585 22.5057L37.2308 22.858L38.0876 22.9541L38.4161 23.5715L39.2965 24.1008L39.3446 24.0924L39.537 24.0123L39.7704 23.8681L39.6574 23.6917L39.3286 23.7158L39.0324 23.3067L38.4394 22.3928L37.4056 21.4712L36.3491 20.9984L36.0523 20.6457L35.4033 19.8777L34.8113 19.5572L34.7233 19.2607L34.9867 19.0844L35.612 19.2286L36.846 19.5812L37.4389 19.7896L37.8238 20.3265L38.4398 20.6474H38.9123L39.537 20.8237L40.217 20.7032L40.4815 20.4694L40.0969 20.1405L39.5367 19.9963L38.886 19.9078L38.5011 19.5789L37.9969 18.8413L37.8775 18.3684L37.2285 17.7827L36.5238 17.3336L35.7234 16.8364L34.843 16.011L34.7873 15.7702H34.9874L36.1406 16.6842L37.3179 17.3653L37.9425 17.8385L38.7359 18.5755L39.4479 18.9601L39.8568 19.0803L40.0643 18.7518L39.7684 18.6396L39.1501 18.0783L38.974 17.4532L38.3261 16.7479L37.7898 16.2985L37.5253 15.6253L36.6132 14.2626L35.3723 13.172L35.3156 12.8194L35.7558 12.8755L36.3808 13.1964L37.3812 13.6128L38.4151 13.6692L39.1838 14.0302L40.0082 14.1741L40.7129 13.9661L40.6569 13.6692L39.8565 13.4926L39.1515 13.172L37.7344 12.4908L36.9674 12.0741L36.5585 11.5769L36.7029 11.4002L36.9107 11.5445L37.2308 11.6647L37.6474 11.6981H38.3281L38.912 11.634L39.8018 11.5782L40.4818 11.8427L41.1865 12.3479L41.4833 12.4361L41.5166 12.1716L41.2755 11.9312L40.5708 11.2814L39.4743 10.7204L38.6786 10.6319L37.1731 10.5434L36.8216 10.127L36.0546 9.35901L35.1982 8.77365L34.878 8.47713L35.1425 8.26877L35.5503 8.44508L36.2847 8.82875L37.1185 9.12527L38.2397 9.39006H39.2088L40.0092 10.28L40.6582 10.6646L40.8917 10.4242L40.0106 9.12527L38.6252 8.12352L37.472 7.85104L36.4951 6.82458L35.6387 6.31969L34.4615 6.02317L35.1105 5.46219L36.2627 5.07719L37.1191 4.81239L37.3192 4.54826L37.2072 4.3399L36.7339 4.22002L36.2847 4.12986L32.9537 4.19398L32.3618 3.53649L31.6884 3.09572L30.8323 2.71071L29.7108 2.53407H28.742L28.4782 2.18146L27.5654 1.20341L26.4685 0.20166L25.7958 1.32429L25.7625 1.67691L26.083 2.09364L26.1163 2.44625L25.8829 2.65462L25.1382 2.71038L23.7845 2.32537L22.4555 2.03821L21.8385 2.06191L20.8297 2.27028L20.9497 2.62323L21.5104 2.59919L21.7438 2.63926L21.7441 2.63825Z" fill="white"/>
<path d="M25.3239 2.26928L25.2596 1.58809L24.2907 0.409691L23.9943 0.321203L23.7862 0.618055L23.8195 0.971006L23.4913 1.26719L23.458 1.67657L23.8425 1.88327L24.3788 2.26928H25.3239Z" fill="white"/>
<path d="M33.548 39.5825L32.2494 37.8979L31.1275 36.2464L30.2937 34.9478L29.9739 34.0579L29.7978 33.2L29.589 32.6147L29.2609 32.4627L28.9401 32.5506L28.8283 33.1119L29.0618 34.0899L29.6221 35.5091L30.3264 36.6551L31.1268 37.6658L32.0082 38.5474L32.5362 39.0526L33.5463 39.5819L33.548 39.5825ZM15.8746 9.4298L15.5621 9.86389L15.4337 10.3047L15.4897 10.6175L15.6421 10.7134L16.0823 10.6175L16.4108 10.4332L16.6443 10.1995L16.7723 9.76706L16.6443 9.55869L16.3641 9.32495L16.1307 9.30124L15.8746 9.4298ZM24.2817 8.26677H24.6423L24.9788 8.13921L25.0024 7.80229L24.8744 7.41761L24.7223 7.05665L24.4181 6.84795L24.0256 6.77549L23.489 6.79987L23.1528 7.08069L23.0014 7.3929L23.1058 7.67373L23.466 7.88176L23.8502 8.09012L24.2837 8.26643L24.2817 8.26677ZM53.1474 39.6787L52.9393 39.8871L52.9803 40.2637L53.0434 40.9372L53.1157 41.6515L53.1634 42.2676L53.1301 42.9738L53.0967 43.7595L52.9523 44.4647L52.7836 45.0821L52.4958 45.6832L52.1259 46.3003L51.7407 46.9013L51.3325 47.454L50.9567 47.9505L50.7486 48.3275L50.5958 48.6721L50.6292 48.9289L50.8229 49.017L51.1828 48.9289L51.8865 48.255L52.5031 47.5334L52.9123 46.9558L53.2728 46.2833L53.5116 45.6658L53.7214 44.9603L53.8724 44.1345L53.8885 43.7578V42.2505L53.7681 41.5052L53.5996 40.7272L53.3922 40.0781L53.2888 39.7492L53.1518 39.677L53.1474 39.6787ZM22.0636 44.5289L22.4725 44.9863L23.8172 46.155L24.5622 46.8202L25.2265 47.4212L25.7628 47.9258L25.8672 48.0928L25.9396 48.2136L25.7308 48.1979L25.1945 47.8607L24.2897 47.2596L22.889 46.3133L22.3221 45.9276L21.7218 45.4561L21.0651 44.8551L20.5846 44.4788L20.0079 43.9174L19.6314 43.5251L19.398 43.1638L19.3099 42.7297L19.3259 42.329L19.478 42.1761L19.7421 42.1921L20.1587 42.4412L20.6069 42.8753L20.9357 43.276L21.2879 43.6296L21.6321 44.0544L22.0656 44.5272L22.0636 44.5289ZM19.0288 26.3541L19.0448 26.1374L19.1889 25.9771L19.6931 25.7687L20.7423 25.4401L21.7912 25.3116H22.4318L22.9604 25.4241L23.4567 25.6725L23.8489 26.0575L23.8732 26.2739L23.8252 26.4262L23.6584 26.4596L23.4023 26.4262L23.0114 26.313L22.6446 26.2011L22.188 26.1527H21.6211L21.1405 26.145L20.7163 26.1851L20.2437 26.2649L19.8675 26.3694L19.5007 26.4496L19.2602 26.4656L19.0935 26.4416L19.0371 26.3534L19.0288 26.3541ZM32.4828 44.448L32.3301 44.8731L32.2664 45.209L32.139 45.8194L32.098 46.308L32.2107 46.4449L32.4441 46.4783L32.5635 46.3814L32.6192 46.1256L32.797 45.7567L32.9721 45.5563L33.1645 45.38L33.2845 45.0998L33.2512 44.6264L33.0844 44.3783L32.9874 44.2891H32.763L32.5962 44.3225L32.4835 44.45L32.4828 44.448ZM32.812 59.0479H32.6592L32.5385 58.6869L32.5305 58.2779L32.6182 57.7166L32.8183 56.9486L33.1475 56.4754L33.444 56.1081L33.7078 56.0747L33.7795 56.3151L33.62 56.8287L33.3946 57.4538L33.2835 57.758L33.0751 58.2315L32.9164 58.7828L32.8687 58.9427L32.813 59.0476L32.812 59.0479ZM43.1321 51.9765L42.941 52.217L42.9744 52.602L43.3099 53.0668L43.3592 53.5717L43.4376 53.7163L43.5907 53.7567L43.7574 53.6602L43.8064 53.4351L43.8858 53.187L43.9192 52.9225V52.5696L43.8705 52.3051L43.6861 52.0714L43.5266 51.9271L43.3345 51.9111L43.1321 51.9765ZM28.4071 78.6986L28.079 79.0265L27.9586 79.2673L27.9189 79.476L27.9522 79.6429L28.0563 79.7231H28.1523L28.3764 79.675L28.6099 79.5231L28.754 79.306L28.8744 79.0723L28.9461 78.7754L28.9237 78.6085L28.8343 78.5363L28.6586 78.544L28.4101 78.6969L28.4071 78.6986ZM30.8153 75.1865L30.5425 75.3534L30.4071 75.5224L30.3911 75.6663L30.4705 75.8109L30.6072 75.8503L30.792 75.7868L30.943 75.6984L31.0648 75.5314L31.1368 75.3551L31.1115 75.2112L31.0154 75.1547L30.8153 75.1881V75.1865ZM35.3322 70.6883L34.2267 71.8035L33.3166 72.7893L32.6679 73.5109L32.6346 73.7112L32.7063 73.8311L32.8587 73.8394L33.0921 73.6868L33.5087 73.3102L34.0379 72.8293L34.6049 72.236L35.1408 71.7154L35.6134 71.1614L35.9665 70.6405L36.0609 70.4068L35.9665 70.2872L35.8538 70.2625L35.5407 70.4629L35.3339 70.6869L35.3322 70.6883ZM38.0059 69.0618L37.8455 69.2287L37.7978 69.3653L37.8228 69.5015L37.9332 69.5663H38.0302L38.1746 69.4054L38.3341 69.2611L38.4054 69.1489L38.3991 69.0611L38.3181 69.0203L38.143 69.0123L38.0059 69.0611V69.0618ZM34.1306 62.9601H34.0036L33.9475 63.0325L33.9315 63.272V63.6727L34.0112 64.1068L34.148 64.4193L34.4361 64.8921L34.6282 65.173L34.7319 65.22L34.7886 65.2134L34.8193 65.1409L34.7476 64.7719L34.6756 64.5879L34.6682 64.4514L34.6602 64.0664L34.5722 63.5855L34.4438 63.2249L34.268 63.0169L34.1306 62.9601ZM15.8352 62.4225L15.5471 62.4782L15.2989 62.5587L15.2266 62.6632L15.2189 62.8075L15.347 62.9678L15.4347 63.0399L15.6271 63.096L15.8435 63.0883L15.9473 63.0549L16.0753 62.9027L16.1474 62.734L16.1807 62.5981L16.1567 62.4772L16.0526 62.4135L15.8365 62.4215L15.8352 62.4225ZM24.0346 63.3367L23.3299 63.112L23.2255 63.1521L23.2019 63.3207L23.2819 63.4726L23.8182 63.6493L24.5709 63.883L25.5237 64.1228L25.9406 64.1562L26.3741 64.1799L26.7906 64.252L27.2632 64.3322L27.5354 64.3168L27.6234 64.2043V64.0517L27.5517 63.9555L27.3032 63.8914L26.863 63.7952L26.3184 63.7555L25.7418 63.667L25.0768 63.5952L24.6766 63.5388L24.3481 63.4666L24.0359 63.3384L24.0346 63.3367ZM30.4965 63.5705L30.2804 63.7308L30.2394 63.8834L30.2804 64.0193L30.4081 64.0757L30.6416 64.0193L30.8016 63.891L30.8894 63.7308V63.6025L30.8337 63.5304H30.6572L30.4978 63.5705H30.4965ZM8.90876 48.3045L8.67531 48.256L8.57926 48.2804L8.53891 48.425L8.5876 48.6731L8.70733 48.7853L8.87408 48.8187L9.01048 48.7152L9.03416 48.5549L9.01048 48.419L8.90609 48.3061L8.90876 48.3045ZM4.20209 38.2589L4.11404 38.8843L4.13005 39.5188L4.2261 40.064L4.41019 40.6414L4.59462 41.0087L4.72268 41.2895L4.80272 41.4415L4.90644 41.5299H4.9628L5.01082 41.4575L5.05084 41.2414L4.93879 40.4961L4.85875 40.0387L4.67466 39.5178L4.52225 39.0286L4.51458 38.6436L4.4262 38.2669L4.33816 38.1868H4.24878L4.20076 38.2589H4.20209ZM10.8961 37.4812L10.9361 37.353L10.9028 37.1927L10.7107 37.016L10.3438 36.8491L9.83122 36.6247L9.39067 36.408L8.9101 36.2878L8.62996 36.1836L8.37383 36.1916L8.56592 36.3359L9.12654 36.6721L9.62312 37.0414L10.1274 37.354L10.3438 37.4501L10.6556 37.4982L10.8961 37.4822V37.4812ZM3.87259 33.4805L3.63214 33.8976L3.62414 34.1861L3.72018 34.2662L3.86425 34.2105L4.00833 34.0101L4.10437 33.7857L4.17674 33.6188V33.3783L4.06469 33.3059L3.94429 33.3623L3.87259 33.4805ZM26.797 16.1232L26.5165 16.1713L26.1497 16.5242L25.437 17.6625L24.6843 19.1217L24.2604 19.9636L23.7875 20.9416L23.2115 21.8315L23.0678 22.1684L23.0915 22.2886L23.2436 22.2966L23.7161 22.1123L24.3965 21.3991L25.2932 20.1399L25.8539 19.0977L26.3581 18.2629L26.733 17.2769L26.8997 16.6594L26.9157 16.3145L26.7957 16.1222L26.797 16.1232ZM13.4734 29.6241L13.6334 29.6886L13.6818 29.8809L13.5614 30.5704L13.2249 31.5164L12.9288 32.4223L12.4078 33.0711L12.1437 33.2715L11.8632 33.376L11.7032 33.2635L11.6871 33.0551L11.9119 32.8147L12.1454 32.4297L12.4395 31.7809L12.6163 31.1638L12.776 30.5544L13.0882 29.9694L13.2966 29.6725L13.4727 29.6241H13.4734ZM3.91295 27.6206L3.57644 28.2056L3.42437 29.007L3.38368 29.4314V29.744L3.45605 29.9043L3.66415 29.8482L4.04868 29.2548L4.26445 28.5492L4.4312 27.9238L4.43921 27.483L4.34316 27.3388L4.08703 27.4112L3.91094 27.6196L3.91295 27.6206ZM8.15639 28.8304L8.1804 29.0067L8.27611 29.1269L8.49222 29.3436L8.72567 29.536L8.99747 29.6882L9.1899 29.8084L9.26994 29.8004L9.31029 29.7283L9.30196 29.5921L9.19757 29.4398L9.03082 29.2394L8.75068 29.0725L8.57393 28.9122L8.42219 28.7763L8.28612 28.7519L8.20608 28.7436L8.15639 28.8304ZM5.76187 25.1106L5.36167 25.1586L5.16924 25.2952L5.10521 25.5113L5.16157 25.6719L5.38568 25.76L5.75253 25.72L6.13705 25.5754L6.24911 25.3914L6.2411 25.2548L6.11304 25.1349L5.96963 25.0945L5.76153 25.1106H5.76187ZM25.7561 28.7583L26.0203 28.8307L26.1003 28.975L26.1337 29.2955L26.1737 29.6325L26.094 29.8729L25.9272 29.9694L25.5187 29.9771L25.2466 29.913L25.0938 29.7126L24.9664 29.5523V29.2955L25.1665 29.0391L25.471 28.7987L25.7591 28.7583H25.7561ZM18.8217 8.07376L19.1885 7.76121L19.8692 7.43297L20.5499 7.12811L21.1982 6.82291L21.4947 6.67899L21.7191 6.6456L21.9029 6.68567L22.047 6.91941L21.9509 7.08637L21.7672 7.13479L21.544 7.19255L21.2956 7.40058L20.7436 7.73751L19.9829 7.94554L19.5097 8.06608L19.0528 8.09947L18.8194 8.0751L18.8217 8.07376ZM17.4607 9.43681L17.342 9.63015L17.3259 9.7744L17.43 9.89495L17.5581 9.95906L17.7181 9.95104L17.7982 9.91097L17.8545 9.72665L17.8385 9.51795L17.7968 9.39641L17.6848 9.37203H17.5567L17.4607 9.43614V9.43681ZM19.0301 10.8393L18.9181 10.8476L18.8297 10.9438L18.8137 11.1041L18.8617 11.2326L18.9501 11.2804H19.1025L19.2222 11.2243L19.2466 11.1041L19.2062 10.9598L19.1499 10.872L19.0301 10.8386V10.8393ZM23.7061 11.5372L24.5065 10.9695L24.9948 10.6643L25.2912 10.4803H25.3956L25.4116 10.6963L25.2115 10.8566L25.1155 11.1859L24.8674 11.5705L24.4191 11.7866L23.9626 11.8914H23.554L23.482 11.7549L23.5861 11.6103L23.7061 11.5385V11.5372ZM26.4045 11.8176L26.6689 11.4807L26.9734 11.1922L27.2455 11.0082L27.4456 10.9919L27.5817 11.0804V11.3288L27.5097 11.6013L27.2052 11.8901L26.845 12.1145L26.4782 12.2107L26.3017 12.1542L26.2777 12.01L26.4045 11.8176ZM26.4525 13.2284L26.5569 13.0445L26.805 12.9323L27.2385 12.7236L27.7351 12.419L27.9686 12.2521L28.3204 12.0834L28.5452 12.1395V12.3803L28.4568 12.597L28.1447 12.9643L27.7111 13.1727L27.2776 13.349L26.829 13.357H26.5489L26.4525 13.2284ZM25.5877 5.50827L25.3319 5.59609L25.2756 5.77274L25.38 5.96507L25.6601 5.94905L25.8935 5.86089L26.0603 5.66855L25.9883 5.50827L25.7638 5.42813L25.5877 5.50827ZM30.104 4.04071L29.9602 3.93653L30.0639 3.74452L30.4641 3.70445L30.6806 3.77625L30.8493 3.86473L30.8563 4.00865L30.7126 4.07276L30.4885 4.08879L30.2724 4.07276L30.104 4.04071ZM30.7596 4.95531L30.9931 4.94763L31.1698 4.98803L31.2572 5.0438L31.2239 5.13195L31.0955 5.28455L30.9197 5.30024L30.7113 5.26852L30.5909 5.21209L30.5032 5.10791L30.6065 5.01942L30.7596 4.95531ZM30.7129 9.07652L31.1378 8.90021L31.5047 8.70787L31.8899 8.49116L32.1843 8.38698L32.3621 8.33889L32.5372 8.07409L32.4098 7.95388L32.1617 7.96991L31.8645 8.03436L31.5363 8.16258L31.3029 8.17861L31.2715 8.0023L31.3029 7.66538L31.1695 7.52881H30.9757L30.8493 7.68909L30.7273 7.85004L30.5362 8.05807L30.3994 8.403V8.70787L30.4641 8.87483L30.4488 9.05114L30.5682 9.09154L30.7126 9.07551L30.7129 9.07652ZM30.5525 25.5841L30.7596 25.568L30.9374 25.7123L30.944 25.8325L30.888 25.9049L30.7276 25.9527L30.5208 25.9367L30.3838 25.8004L30.4171 25.6806L30.5525 25.5841ZM30.888 25.1192H31.1285L31.2892 24.9426L31.2732 24.8144L31.1125 24.7099H30.944L30.8153 24.7499L30.7586 24.8698V25.0464L30.887 25.1189L30.888 25.1192ZM31.1548 23.6039L31.3299 23.5705H31.4987L31.6024 23.6583L31.6257 23.7949L31.5714 23.9075L31.4096 23.9869L31.2429 24.0113L31.0671 23.9709L31.0104 23.851V23.7068L31.1552 23.6026L31.1548 23.6039ZM31.3376 22.9464L31.578 22.9545L31.7945 22.89L31.8825 22.7531L31.8195 22.5861L31.6437 22.4983L31.4343 22.53L31.2432 22.6182L31.2028 22.7625L31.2112 22.8586L31.3382 22.9471L31.3376 22.9464ZM31.8188 21.2468L32.0666 21.1743H32.2587L32.3464 21.2785L32.3131 21.4628L32.1937 21.6231L32.0813 21.7677L31.8582 21.8158H31.6334L31.4413 21.7196L31.4253 21.5674L31.5607 21.4231L31.6641 21.3026L31.8175 21.2468H31.8188ZM32.0666 19.9799L32.3144 19.9465L32.5388 19.9946L32.6349 20.1312V20.2671L32.5308 20.434L32.3464 20.4674L32.1543 20.5159L31.9139 20.5075L31.8101 20.3873L31.8262 20.211L31.9069 20.0904L32.0666 19.9782V19.9799ZM32.2921 19.5552H32.5308L32.7236 19.4911L32.9714 19.3865L33.0047 19.1782L32.917 19.0112L32.7079 18.9391L32.4922 18.9471L32.3401 19.0112L32.2037 19.0833L32.0436 19.2276L32.0122 19.3802L32.0769 19.5001L32.1963 19.5405L32.2934 19.5565L32.2921 19.5552ZM1.21394 39.9104L1.42237 39.9348L1.4784 40.1432L1.33433 40.3195L1.09388 40.2631L0.973818 40.0293L1.21394 39.9104ZM32.1223 18.0636L32.5065 17.8632L32.6892 17.8231L32.9147 17.8472L33.0024 17.9273V18.0158L32.9147 18.1601L32.762 18.2883L32.5378 18.3688L32.2737 18.3921L32.0573 18.3604L32.0019 18.2319L32.0353 18.128L32.1236 18.0639L32.1223 18.0636ZM32.4665 17.4221L32.7459 17.3016L32.858 17.1737L32.9147 17.0455V16.9249L32.867 16.8531L32.7459 16.8448L32.5792 16.8608L32.4108 16.9012L32.266 16.989L32.1943 17.0775L32.1693 17.2298L32.2027 17.3657L32.3307 17.4061L32.4678 17.4221H32.4665ZM32.5298 16.3155L32.7703 16.2277L32.9467 16.1071L32.9864 16.0033L33.0117 15.827L32.9704 15.7145L32.858 15.6811L32.6892 15.6891L32.4892 15.7291L32.3531 15.8257L32.257 15.9215L32.241 16.0818L32.265 16.2103L32.3941 16.2821L32.5292 16.3155H32.5298ZM32.5298 13.4535L32.7299 13.4452L32.85 13.4856L32.8833 13.5894L32.8166 13.6939L32.7133 13.8061L32.5465 13.8465H32.3704L32.2584 13.7423V13.6221L32.3634 13.5176L32.5302 13.4535H32.5298ZM32.5458 15.1772L32.7953 15.057L32.9864 14.89L33.0024 14.6419L32.9864 14.4893L32.858 14.4172L32.7143 14.3775L32.5949 14.3851L32.5298 14.4656L32.4965 14.5775L32.4631 14.7221L32.3914 14.7701H32.2544L32.215 14.8503L32.231 14.9945L32.3344 15.1231L32.4391 15.1625L32.5458 15.1772ZM32.5792 12.5877L32.7546 12.4674L32.9394 12.4755L33.0504 12.6117L33.0271 12.7479L32.9394 12.8678L32.7956 12.9242L32.6589 12.9576L32.5382 12.9737L32.3791 12.9576L32.3381 12.8611L32.3791 12.7329L32.4741 12.6451L32.5792 12.5887V12.5877ZM32.6125 11.9462L32.7559 11.8904L32.9074 11.7539L32.9164 11.6253L32.9007 11.4894L32.804 11.433L32.6526 11.4573L32.5555 11.5138L32.4521 11.6253L32.4441 11.7619V11.8904L32.5158 11.9302L32.6125 11.9462ZM32.2674 10.6633L32.3644 10.6155L32.4915 10.6075L32.5965 10.6716L32.6192 10.7678L32.5805 10.9121L32.4755 10.9922L32.3804 11.0486L32.2494 11.066L32.1453 11.0019L32.1213 10.889L32.168 10.7935L32.2647 10.6646L32.2674 10.6633Z" fill="#0A0A0A"/>
</svg>
